Coordinates
version=1
nRows=21
nColumns=28
inDegrees=yes

Units are S.I. units (second, meters, Newtons, ...)
Angles are in degrees.

endheader
time	pelvis_tilt	pelvis_list	pelvis_rotation	pelvis_tx	pelvis_ty	pelvis_tz	hip_flexion_r	hip_adduction_r	hip_rotation_r	knee_angle_r	ankle_angle_r	subtalar_angle_r	mtp_angle_r	hip_flexion_l	hip_adduction_l	hip_rotation_l	knee_angle_l	socket_flexion	socket_adduction	socket_rotation	socket_tx	socket_ty	socket_tz	foot_flex	lumbar_extension	lumbar_bending	lumbar_rotation
      0.81250000	     -1.44313096	     -9.93924311	      7.23398301	      0.40932291	      0.98047755	      0.28831038	      8.68820556	     17.96332987	      8.60809192	    -17.96609399	     -1.55535262	    -37.24073351	    -16.62897755	     25.58979005	    -14.94983437	      3.28199662	    -71.35933618	      0.00000000	      0.00000000	      0.00000000	      0.00000000	      0.00621249	      0.00000000	     -1.30728951	     -5.59905863	      7.84330937	     -7.75998925
      0.81666667	     -1.56230069	     -9.57465274	      7.26365467	      0.41458268	      0.98171742	      0.28738286	      8.16339855	     17.45655547	      8.53652074	    -17.52695513	     -1.53265788	    -36.91192507	    -16.44448341	     26.44613519	    -14.11914131	      3.55791776	    -71.14342655	      0.00000000	      0.00000000	      0.00000000	      0.00000000	      0.00697795	      0.00000000	     -1.36249053	     -5.54208282	      7.47432030	     -7.64390726
      0.82083333	     -1.68383799	     -9.21100858	      7.32153138	      0.41990312	      0.98290597	      0.28649530	      7.65109072	     16.94745438	      8.39205573	    -17.09304483	     -1.49375029	    -36.51037607	    -16.19827450	     27.28413583	    -13.30738840	      3.82364966	    -70.86281094	      0.00000000	      0.00000000	      0.00000000	      0.00000000	      0.00777844	      0.00000000	     -1.40777621	     -5.48187684	      7.12283908	     -7.55400030
      0.82500000	     -1.76936807	     -8.82534278	      7.66178750	      0.42518075	      0.98386721	      0.28488714	      7.34274786	     16.21518133	      7.09527651	    -16.97437682	     -0.58490791	    -34.17883459	    -13.57747017	     28.16455852	    -12.28509009	      4.38294980	    -70.59989350	      0.00000000	      0.00000000	      0.00000000	      0.00000000	      0.00859126	      0.00000000	     -1.44900244	     -5.41779576	      6.82235196	     -8.06231924
      0.82916667	     -1.87261249	     -8.65235854	      7.48254105	      0.43036009	      0.98488575	      0.28453361	      6.92353062	     15.98794346	      7.14187108	    -16.73540329	     -0.58108135	    -34.13551829	    -13.54129404	     28.88049789	    -11.88171390	      4.39018122	    -70.18148273	      0.00000000	      0.00000000	      0.00000000	      0.00000000	      0.00893362	      0.00000000	     -1.39010961	     -5.56189587	      6.77634853	     -7.99140801
      0.83333333	     -1.99706850	     -8.21572014	      7.55828637	      0.43587469	      0.98609705	      0.28378211	      6.27069943	     15.45814914	      7.33538522	    -16.09381725	     -0.72818506	    -33.93826671	    -13.41920671	     29.62207492	    -11.00848364	      4.63355041	    -69.73411806	      0.00000000	      0.00000000	      0.00000000	      0.00000000	      0.01003869	      0.00000000	     -1.44084051	     -5.32430438	      6.20782861	     -7.72895542
      0.83750000	     -2.09408185	     -7.89274872	      7.53779818	      0.44134578	      0.98719015	      0.28327670	      5.71714157	     15.05316943	      7.34043058	    -15.64423345	     -0.85225570	    -33.76482501	    -13.27078325	     30.24858527	    -10.37824722	      4.74481198	    -69.15577372	      0.00000000	      0.00000000	      0.00000000	      0.00000000	      0.01058556	      0.00000000	     -1.44003141	     -5.27536379	      5.88325387	     -7.55820541
      0.84166667	     -2.17072924	     -7.60604296	      7.50742655	      0.44681819	      0.98827064	      0.28281145	      5.15473372	     14.69710876	      7.37759555	    -15.21121043	     -0.93989511	    -33.58816829	    -13.11906832	     30.84339887	     -9.80874686	      4.85102847	    -68.54478789	      0.00000000	      0.00000000	      0.00000000	      0.00000000	      0.01115633	      0.00000000	     -1.41537079	     -5.26427829	      5.59706863	     -7.42017282
      0.84583333	     -2.24735420	     -7.34441356	      7.46986444	      0.45213954	      0.98925479	      0.28240730	      4.63617784	     14.38510455	      7.46312606	    -14.83720927	     -1.00015759	    -33.43825754	    -13.01237789	     31.44542694	     -9.29026865	      4.95059476	    -67.90702800	      0.00000000	      0.00000000	      0.00000000	      0.00000000	      0.01172457	      0.00000000	     -1.36074562	     -5.25727970	      5.39618070	     -7.30925044
      0.85000000	     -2.33761970	     -7.08200562	      7.44197269	      0.45763725	      0.99020705	      0.28207625	      4.10062596	     14.07066412	      7.51374490	    -14.41178158	     -1.08488796	    -33.28205546	    -12.90849656	     31.99275292	     -8.79541207	      5.03338869	    -67.16534103	      0.00000000	      0.00000000	      0.00000000	      0.00000000	      0.01217313	      0.00000000	     -1.31147331	     -5.20803876	      5.11860849	     -7.18839320
      0.85416667	     -2.41673401	     -6.82491233	      7.39568626	      0.46316867	      0.99115115	      0.28185743	      3.56312842	     13.76958339	      7.55167549	    -13.99910173	     -1.18810058	    -33.13041640	    -12.80059931	     32.47158872	     -8.34299031	      5.09145787	    -66.33693349	      0.00000000	      0.00000000	      0.00000000	      0.00000000	      0.01251331	      0.00000000	     -1.25368216	     -5.17429935	      4.83995800	     -7.07303193
      0.85833333	     -2.44833168	     -6.54767439	      7.33286678	      0.46883078	      0.99213648	      0.28171424	      2.94927336	     13.45583916	      7.58093970	    -13.55277293	     -1.33518511	    -32.97291511	    -12.65017800	     32.81648865	     -7.92690543	      5.07826612	    -65.39129029	      0.00000000	      0.00000000	      0.00000000	      0.00000000	      0.01264759	      0.00000000	     -1.21108455	     -5.17458242	      4.48990127	     -6.93908914
      0.86250000	     -2.00799707	     -6.09287812	      7.13464134	      0.47468093	      0.99397037	      0.28186665	      1.75807940	     13.02439483	      7.79641728	    -13.07130649	     -1.58807087	    -32.88640559	    -11.93700878	     32.34042423	     -7.54598231	      4.79091686	    -64.09238527	      0.00000000	      0.00000000	      0.00000000	      0.00000000	      0.01204055	      0.00000000	     -1.15192845	     -5.81751054	      4.04157004	     -6.62529790
      0.86666667	     -2.16923872	     -5.93141600	      7.08846157	      0.48011427	      0.99456259	      0.28174029	      1.37251702	     12.83562491	      7.87359047	    -12.72666943	     -1.64679824	    -32.82072276	    -11.87104325	     32.88672193	     -7.22586152	      4.86471807	    -63.15136307	      0.00000000	      0.00000000	      0.00000000	      0.00000000	      0.01237531	      0.00000000	     -1.03688447	     -5.68169978	      3.88887583	     -6.53437076
      0.87083333	     -2.26712546	     -5.88731530	      6.99794156	      0.48506564	      0.99504068	      0.28182692	      1.11246283	     12.80057078	      7.87088182	    -12.67268173	     -1.65628139	    -32.79684952	    -11.85597564	     33.47702233	     -7.09072314	      4.91137892	    -62.30484836	      0.00000000	      0.00000000	      0.00000000	      0.00000000	      0.01285882	      0.00000000	     -0.87081527	     -5.85148267	      3.84830595	     -6.50617941
      0.87500000	     -2.06263396	     -5.33589186	      6.68195287	      0.49152517	      0.99658298	      0.28223074	     -0.00836738	     12.24873528	      8.42150127	    -11.94327435	     -2.11557660	    -32.99286830	    -11.59344373	     32.96188883	     -6.70050330	      4.43191620	    -60.62366503	      0.00000000	      0.00000000	      0.00000000	      0.00000000	      0.01185556	      0.00000000	     -0.86125968	     -5.96387512	      3.19280211	     -6.01469367
      0.87916667	     -2.17190437	     -5.32053696	      6.63282260	      0.49640298	      0.99690013	      0.28230654	     -0.23968349	     12.25099536	      8.42136790	    -11.89058261	     -2.11761423	    -32.98685300	    -11.58797342	     33.54367997	     -6.59771116	      4.50234517	    -59.69698806	      0.00000000	      0.00000000	      0.00000000	      0.00000000	      0.01235167	      0.00000000	     -0.66846718	     -6.12593920	      3.17618905	     -5.99399895
      0.88333333	     -2.26320191	     -4.90898903	      6.36648433	      0.50279769	      0.99776508	      0.28258886	     -0.92833842	     11.79472629	      8.77215189	    -11.29980029	     -2.45293503	    -33.01635955	    -11.58644357	     33.40916239	     -6.26427263	      4.15558987	    -58.02387825	      0.00000000	      0.00000000	      0.00000000	      0.00000000	      0.01150181	      0.00000000	     -0.63204963	     -5.83336507	      2.65920719	     -5.72460541
      0.88750000	     -2.38263656	     -4.84793710	      6.29910811	      0.50819286	      0.99806551	      0.28259272	     -1.27215293	     11.73569879	      8.84718106	    -11.09936114	     -2.45252153	    -33.04183374	    -11.58290070	     33.72574910	     -6.13832842	      4.18118543	    -56.73687699	      0.00000000	      0.00000000	      0.00000000	      0.00000000	      0.01129414	      0.00000000	     -0.47543199	     -5.74514141	      2.64923779	     -5.64414868
      0.89166667	     -2.01991685	     -4.36057399	      5.74705184	      0.51440989	      0.99955733	      0.28354952	     -2.43726424	     11.27261455	      9.61218669	    -10.56793840	     -2.81857284	    -33.37405349	    -11.64357443	     32.89401695	     -6.06195165	      3.36574770	    -54.78585128	      0.00000000	      0.00000000	      0.00000000	      0.00000000	      0.01000777	      0.00000000	     -0.43459992	     -6.25286459	      2.03679583	     -4.95070472
      0.89583333	     -2.16476715	     -4.22666317	      5.62476423	      0.51998444	      0.99980653	      0.28360863	     -2.81032357	     11.11853517	      9.76633589	    -10.27805896	     -2.97193566	    -33.38012092	    -11.68178914	     33.08611707	     -5.91424218	      3.25770958	    -53.28910363	      0.00000000	      0.00000000	      0.00000000	      0.00000000	      0.00965828	      0.00000000	     -0.31771247	     -6.11138246	      1.85775896	     -4.83640910
